<?xml version="1.0" encoding="UTF-8"?><svg id="Ebene_1" xmlns="http://www.w3.org/2000/svg" viewBox="0 0 1280 720"><defs><style>.cls-1{fill:none;}.cls-1,.cls-2{stroke-width:0px;}.cls-2{fill:#e5e1e1;}</style></defs><path class="cls-1" d="M12.58,139.9h327.39v385.52H12.58c0-128.51,0-257.01,0-385.52ZM180.41,428.18h86.12c-.15-.52-.26-.96-.39-1.39-5.05-15.7-10.1-31.4-15.16-47.1-23.91-74.25-47.81-148.49-71.72-222.74-.56-1.75-1.16-3.49-1.68-5.25-.45-1.55-1.7-2.21-3.06-1.6-.17.08-.35.12-.52.18-13.82,4.45-27.6,8.99-41.46,13.31-18.6,5.8-29.24,25.74-23.01,44.68,3.24,9.86,6.38,19.76,9.57,29.64,20.27,62.97,40.54,125.93,60.81,188.9.14.43.31.86.49,1.36ZM330.08,515.37v-1.7c0-3.31,0-6.62,0-9.93.01-6.91-1.09-13.64-3.24-20.2-8.88-27.1-34.27-45.54-62.79-45.54-68.77-.01-137.54,0-206.31,0-.28,0-.55-.02-.83,0-.3.03-.6.1-.91.15-.02.36-.06.63-.06.91,0,3.59-.03,7.17,0,10.76.04,4.05.43,8.08,1.22,12.06,2.66,13.48,8.87,25.06,18.72,34.63,12.68,12.31,27.94,18.79,45.61,18.82,68.95.11,137.91.05,206.86.05h1.71ZM118.42,428.24c.18-.52.34-.95.48-1.38,8.33-25.84,16.65-51.69,24.99-77.53.26-.82.29-1.56.02-2.39-14.56-45.17-29.11-90.34-43.66-135.52-1.13-3.52-1.93-7.09-2.17-10.78-.09-1.35-.16-2.71-.24-4.06-.51.85-.83,1.73-1.1,2.63-13.81,46.41-27.61,92.83-41.42,139.24-10.23,34.39-20.47,68.78-30.69,103.18-2.52,8.48-2.68,17.02-.55,25.6,2.58,10.4,7.88,19.28,15.36,26.85,10.84,10.97,24.04,17.36,39.23,19.7,1.12.17,2.27.51,3.63.22-.58-.39-.99-.67-1.4-.94-7.17-4.64-13.4-10.31-18.65-17.05-8.84-11.34-14.06-24.17-15.66-38.44-.76-6.78-.43-13.6-.36-20.4.03-2.55,1.24-4.69,3.12-6.4,1.96-1.78,4.28-2.54,6.94-2.54,20.15.02,40.3.01,60.45.01.55,0,1.09,0,1.67,0Z"/><path class="cls-2" d="M180.41,428.18c-.18-.51-.35-.93-.49-1.36-20.27-62.97-40.54-125.93-60.81-188.9-3.18-9.88-6.32-19.78-9.57-29.64-6.23-18.94,4.41-38.89,23.01-44.68,13.86-4.32,27.64-8.87,41.46-13.31.17-.06.36-.1.52-.18,1.36-.61,2.6.05,3.06,1.6.52,1.76,1.11,3.5,1.68,5.25,23.91,74.25,47.81,148.49,71.72,222.74,5.05,15.7,10.11,31.4,15.16,47.1.14.43.25.87.39,1.39h-86.12Z"/><path class="cls-2" d="M330.08,515.37h-1.71c-68.95,0-137.91.07-206.86-.05-17.67-.03-32.93-6.51-45.61-18.82-9.85-9.56-16.06-21.15-18.72-34.63-.79-3.98-1.17-8-1.22-12.06-.04-3.59-.01-7.17,0-10.76,0-.27.03-.55.06-.91.31-.05.61-.12.91-.15.27-.03.55,0,.83,0,68.77,0,137.54,0,206.31,0,28.52,0,53.91,18.44,62.79,45.54,2.15,6.56,3.25,13.29,3.24,20.2,0,3.31,0,6.62,0,9.93v1.7Z"/><path class="cls-2" d="M118.42,428.24c-.58,0-1.13,0-1.67,0-20.15,0-40.3.01-60.45-.01-2.66,0-4.98.76-6.94,2.54-1.88,1.71-3.09,3.84-3.12,6.4-.07,6.8-.4,13.62.36,20.4,1.6,14.28,6.82,27.11,15.66,38.44,5.25,6.74,11.48,12.41,18.65,17.05.42.27.82.55,1.4.94-1.36.29-2.51-.05-3.63-.22-15.19-2.34-28.39-8.73-39.23-19.7-7.48-7.57-12.78-16.45-15.36-26.85-2.13-8.58-1.97-17.13.55-25.6,10.22-34.39,20.46-68.78,30.69-103.18,13.81-46.41,27.61-92.83,41.42-139.24.27-.9.59-1.79,1.1-2.63.08,1.35.15,2.71.24,4.06.24,3.69,1.03,7.27,2.17,10.78,14.55,45.17,29.09,90.35,43.66,135.52.27.84.24,1.57-.02,2.39-8.34,25.84-16.66,51.68-24.99,77.53-.14.43-.3.86-.48,1.38Z"/><path class="cls-2" d="M430.49,292.73h12.63c2.64,0,4.79,2.18,4.79,4.87v114.32c0,2.69-2.14,4.87-4.79,4.87h-12.63c-2.64,0-4.79-2.18-4.79-4.87v-114.32c0-2.69,2.14-4.87,4.79-4.87Z"/><path class="cls-2" d="M678.23,326.66c-1.89,1.68-4.76,1.62-6.53-.19-3.07-3.12-6.42-5.56-10.06-7.35-4.85-2.37-9.82-3.65-14.92-3.84-5.09-.18-10.09.61-15.01,2.37-4.91,1.77-9.25,4.35-13.03,7.76-3.77,3.41-6.83,7.61-9.16,12.6-2.34,4.99-3.5,10.53-3.5,16.62s1.17,11.78,3.5,16.71c2.34,4.93,5.39,9.13,9.16,12.6,3.77,3.47,8.11,6.06,13.03,7.76,4.91,1.71,9.91,2.47,15.01,2.28,5.09-.18,10.06-1.46,14.92-3.84,3.64-1.78,6.99-4.23,10.06-7.35,1.78-1.8,4.64-1.86,6.53-.19l9.51,8.42c2.05,1.82,2.2,5.02.31,7.01-5.25,5.55-11.03,9.8-17.33,12.75-7.67,3.59-15.49,5.51-23.45,5.75-7.97.25-15.75-1.03-23.36-3.84-7.61-2.8-14.38-6.91-20.31-12.33-5.93-5.42-10.69-11.99-14.29-19.73-3.59-7.73-5.39-16.41-5.39-26.03s1.8-18.29,5.39-26.03c3.59-7.73,8.36-14.31,14.29-19.73,5.93-5.42,12.7-9.53,20.31-12.33,7.61-2.8,15.39-4.05,23.36-3.74,7.97.31,15.78,2.25,23.45,5.84,6.28,2.94,12.04,7.13,17.27,12.57,1.91,1.99,1.78,5.21-.28,7.03l-9.48,8.39Z"/><path class="cls-2" d="M411.91,409.79l-4.36-9.48,2.21,5.1-21.76,4.77-15.67-35.65-21.03-.15c-3.56-.03-5.87-3.82-4.31-7.07l9.22-19.23-12.29-26.88-41.34,88.55c-1.52,3.26.82,7.02,4.37,7.02h13.91c1.87,0,3.57-1.1,4.37-2.82l8.15-17.54c.8-1.72,2.5-2.82,4.37-2.82h39.25c1.89,0,3.61,1.12,4.4,2.88l7.82,17.42c.79,1.75,2.51,2.88,4.4,2.88h13.92c3.54,0,5.88-3.74,4.38-7Z"/><path class="cls-2" d="M397.08,377.51l10.47,22.8-11.18-25.8h-24.05s0,.02,0,.02l20.4.15c1.87.01,3.56,1.12,4.35,2.84Z"/><path class="cls-2" d="M360.94,292.7l-6.75,3.06c-7.59,3.44-10.99,12.49-7.6,20.2l23.73,53.98h24.09s-33.47-77.24-33.47-77.24Z"/><path class="cls-2" d="M409.77,405.41l-2.21-5.1-10.47-22.8c-.79-1.72-2.48-2.82-4.35-2.84l-20.4-.15,15.67,35.65,21.76-4.77Z"/><path class="cls-2" d="M812.16,409.64l-4.34-9.44,2.2,5.08-21.67,4.75-15.61-35.5-20.95-.15c-3.54-.03-5.85-3.8-4.3-7.04l9.18-19.15-12.24-26.77-41.17,88.19c-1.52,3.25.81,6.99,4.35,6.99h13.86c1.86,0,3.56-1.09,4.36-2.81l8.11-17.47c.8-1.71,2.49-2.81,4.36-2.81h39.08c1.89,0,3.6,1.12,4.38,2.86l7.78,17.35c.78,1.74,2.5,2.86,4.38,2.86h13.86c3.52,0,5.86-3.72,4.36-6.97Z"/><path class="cls-2" d="M761.4,293.04l-6.72,3.05c-7.56,3.43-10.94,12.44-7.57,20.12l23.63,53.76h23.99s-33.33-76.93-33.33-76.93Z"/><polygon class="cls-2" points="810.03 405.28 807.83 400.2 796.7 374.5 772.74 374.52 772.75 374.53 788.35 410.03 810.03 405.28"/><path class="cls-2" d="M916.37,331.36c-2.94-7.5-7.02-14.08-12.24-19.75-5.22-5.67-11.37-10.18-18.45-13.54-7.08-3.35-14.82-5.03-23.21-5.03h-31.58c-2.64,0-4.77,2.17-4.77,4.85v17.75h25.82l10.53-.11c3.6,0,7.11.55,10.53,1.65,3.42,1.1,6.57,2.68,9.45,4.76,3.96,2.93,7.32,6.52,10.08,10.79,4.08,6.83,6.12,14.21,6.12,22.13s-2.04,15.3-6.12,22.13c-2.76,4.27-6.12,7.87-10.08,10.79-2.88,2.07-6.03,3.66-9.45,4.76-3.42,1.1-6.93,1.65-10.53,1.65h-9.45c-2.64,0-4.77-2.17-4.77-4.85v-69.22l-22.14.02v91.69c0,2.68,2.14,4.85,4.77,4.85h31.58c8.4,0,16.13-1.67,23.21-5.03,7.08-3.35,13.23-7.87,18.45-13.54,5.22-5.67,9.3-12.22,12.24-19.66,2.94-7.44,4.41-15.3,4.41-23.6s-1.47-16-4.41-23.5Z"/><path class="cls-2" d="M1008.29,394.19h-47.15c-2.64,0-4.77-2.17-4.77-4.85v-18.47c0-2.68,2.14-4.85,4.77-4.85h38.69c2.64,0,4.77-2.17,4.77-4.85v-12.97c0-2.68-2.14-4.86-4.78-4.85l-65.58.17v68.31c0,2.68,2.14,4.85,4.77,4.85h69.28c2.64,0,4.77-2.17,4.77-4.85v-12.8c0-2.68-2.14-4.85-4.77-4.85Z"/><path class="cls-2" d="M1008.29,293.04h-69.28c-2.64,0-4.77,2.17-4.77,4.85v41.07h22.14s0-18.57,0-18.57c0-2.68,2.14-4.85,4.77-4.85h47.15c2.64,0,4.77-2.17,4.77-4.85v-12.8c0-2.68-2.14-4.85-4.77-4.85Z"/><path class="cls-2" d="M1026.44,297.96v113.67c0,2.85,2.27,5.16,5.08,5.16h13.4c2.8,0,5.08-2.31,5.08-5.16v-54.06c0-4.72,5.72-6.96,8.84-3.46l18.55,20.83c2.04,2.29,5.58,2.26,7.58-.06l12.71-14.73-62.52-65.77c-3.17-3.34-8.73-1.05-8.73,3.59Z"/><path class="cls-2" d="M1127.04,294.63l-42.16,45.38,15.91,16.71,2.66-2.92c3.14-3.44,8.8-1.18,8.8,3.51v54.31c0,2.85,2.27,5.16,5.08,5.16h13.4c2.8,0,5.08-2.31,5.08-5.16v-113.45c0-4.67-5.62-6.94-8.77-3.54Z"/><path class="cls-2" d="M1258.63,292.79h-14.71c-1.54,0-2.99.76-3.89,2.03l-32.46,46.16,13.08,20.62,41.91-61.17c2.21-3.22-.06-7.64-3.92-7.64Z"/><path class="cls-2" d="M1173.08,295.03c-.88-1.4-2.4-2.24-4.03-2.24h-15.08c-3.79,0-6.08,4.28-4.01,7.51l44.73,69.91c.5.79.77,1.71.77,2.65v38.97c0,2.68,2.14,4.86,4.78,4.86h12.62c2.64,0,4.78-2.18,4.78-4.86v-44.49c0-.93-.26-1.84-.75-2.62l-43.82-69.69Z"/><path class="cls-2" d="M461.09,297.71v113.8c0,2.85,2.28,5.17,5.08,5.17h13.42c2.81,0,5.08-2.31,5.08-5.17v-54.13c0-4.73,5.73-6.97,8.85-3.47l18.58,20.85c2.04,2.29,5.59,2.26,7.59-.06l12.73-14.74-62.6-65.84c-3.18-3.34-8.74-1.06-8.74,3.59Z"/><path class="cls-2" d="M561.8,294.38l-42.21,45.44,15.93,16.73,2.67-2.92c3.14-3.44,8.81-1.18,8.81,3.52v54.37c0,2.85,2.28,5.17,5.08,5.17h13.42c2.81,0,5.08-2.31,5.08-5.17v-113.59c0-4.68-5.62-6.95-8.78-3.55Z"/></svg>